<?xml version="1.0" standalone="no"?><!DOCTYPE svg PUBLIC "-//W3C//DTD SVG 1.1//EN" "http://www.w3.org/Graphics/SVG/1.1/DTD/svg11.dtd"><svg t="1603275518978" class="icon" viewBox="0 0 1024 1024" version="1.1" xmlns="http://www.w3.org/2000/svg" p-id="20380" xmlns:xlink="http://www.w3.org/1999/xlink" width="48" height="48"><defs><style type="text/css"></style></defs><path d="M61.44 512c0 248.84224 201.72288 450.56 450.56 450.56 248.84224 0 450.56-201.71776 450.56-450.56 0-248.83712-201.71776-450.56-450.56-450.56-248.83712 0-450.56 201.72288-450.56 450.56z" fill="#FEE8EB" p-id="20381"></path><path d="M381.7216 725.95968c0-13.24544 13.24544-26.48064 26.48064-26.48064h397.18912c13.24032 0 26.48064 13.2352 26.48064 26.48064v46.336c0 13.2352-13.24032 26.48064-26.48064 26.48064H408.20224c-13.2352 0-26.48064-13.24544-26.48064-26.48064v-46.336z m0-145.6384c0-13.24032 13.24544-26.48064 26.48064-26.48064h397.18912c13.24032 0 26.48064 13.24032 26.48064 26.48064v46.34112c0 13.24032-13.24032 26.48064-26.48064 26.48064H408.20224c-13.2352 0-26.48064-13.24032-26.48064-26.48064v-46.34112z m46.34112-152.25856c0-13.2352 13.24032-26.48064 26.48064-26.48064h397.18912c13.24032 0 26.48064 13.24032 26.48064 26.48064v46.336c0 13.24032-13.24032 26.48064-26.48064 26.48064H454.54336c-13.2352 0-26.48064-13.2352-26.48064-26.48064v-46.336zM328.76032 282.42432c0-19.85536 13.24544-26.48064 26.48064-26.48064h397.184c13.24032 0 26.48064 13.24032 26.48064 26.48064v46.336c0 13.24544-13.24032 26.48064-26.48064 26.48064H355.24608c-13.2352 0-26.48064-13.2352-26.48064-26.48064l-0.00512-46.336z" fill="#FFA4A5" p-id="20382"></path><path d="M202.98752 580.32128c0 124.29824 100.77184 225.07008 225.07008 225.07008s225.07008-100.77184 225.07008-225.07008c0-124.30848-100.77696-225.0752-225.07008-225.0752s-225.07008 100.7616-225.07008 225.0752z" fill="#FF6B6A" p-id="20383"></path><path d="M348.62592 600.18176v33.1008h59.57632v52.96128h33.1008v-52.96128h59.57632v-33.1008H441.30304v-19.86048h59.57632v-33.1008h-46.336l46.336-46.34112-19.85536-26.48064-52.96128 59.58144L368.4864 474.39872l-19.85536 26.48064 46.34112 46.34112h-46.34112v33.1008h59.57632v19.86048H348.62592z" fill="#FFFFFF" p-id="20384"></path></svg>