<?xml version="1.0" standalone="no"?><!DOCTYPE svg PUBLIC "-//W3C//DTD SVG 1.1//EN" "http://www.w3.org/Graphics/SVG/1.1/DTD/svg11.dtd"><svg t="1603339317970" class="icon" viewBox="0 0 1024 1024" version="1.1" xmlns="http://www.w3.org/2000/svg" p-id="7814" xmlns:xlink="http://www.w3.org/1999/xlink" width="48" height="48"><defs><style type="text/css"></style></defs><path d="M133.8 267.7s2.1-0.2 3.2 1.1c1.1 1.4 2.5 20.9 7.6 26.2 5.1 5.3 25.7 2.3 25.7 9.3 0 5.5-19.1 6.2-25.6 11.5s-2.8 27.8-10.7 27c-6.2-0.7-1.9-18.6-9.5-25.7-7.6-7.2-26.2-5.7-26.2-12.3 0-6.5 19-2.5 25.5-9.9 6.4-7.4 3.7-27.2 10-27.2z m0 0" fill="#FFBA5A" p-id="7815"></path><path d="M829.9 110.6s1.4-0.1 2.2 0.8c0.8 0.9 1.8 14 5.2 17.7 3.4 3.6 17.3 1.5 17.3 6.3 0 3.8-12.9 4.2-17.3 7.7-4.4 3.6-1.9 18.8-7.3 18.2-4.2-0.4-1.2-12.5-6.4-17.3-5.2-4.9-17.7-3.9-17.7-8.3s12.8-1.8 17.2-6.7c4.5-5.1 2.6-18.4 6.8-18.4z m0 0" fill="#E94151" p-id="7816"></path><path d="M938.2 351.6s2.1-0.2 3.3 1.2c1.2 1.4 2.5 21.2 7.7 26.6 5.2 5.4 26.1 2.3 26.1 9.4 0 5.6-19.4 6.3-26.1 11.7-6.6 5.4-2.9 28.3-10.9 27.4-6.3-0.7-1.9-18.8-9.6-26.1-7.7-7.3-26.6-5.9-26.6-12.5s19.3-2.5 25.9-10.2c6.7-7.5 3.9-27.5 10.2-27.5z m0 0" fill="#FF0000" p-id="7817"></path><path d="M219.7 110.6c0 12 9.8 21.9 21.9 21.9 12 0 21.9-9.8 21.9-21.9 0-12-9.8-21.9-21.9-21.9-12.1 0-21.9 9.8-21.9 21.9z m589 194.7c0 11.9 9.7 21.5 21.6 21.5 11.9 0 21.7-9.7 21.7-21.5 0-11.9-9.7-21.7-21.7-21.7-12 0.1-21.6 9.7-21.6 21.7z m0 0" fill="#FFEB00" p-id="7818"></path><path d="M230.9 292.2c0 83.2 124.1 150.6 277.1 150.6 153 0 277.1-67.4 277.1-150.6 0-83.2-124-150.5-277-150.5-153.1 0-277.2 67.4-277.2 150.5z m0 0" fill="#DB1717" p-id="7819"></path><path d="M559.1 318.1c0 55.6 45.1 100.6 100.6 100.6 55.6 0 100.6-45.1 100.6-100.6 0-55.5-45.1-100.6-100.6-100.6-55.6 0-100.6 45-100.6 100.6z m0 0" fill="#F4AC51" p-id="7820"></path><path d="M701.8 245.2c-26.1-15-58.1-15-84.2 0s-42.1 42.9-42.1 72.9c0 30.1 16 57.9 42.1 72.9 26.1 15 58.2 15 84.2 0 26.1-15 42.1-42.9 42.1-72.9 0-30.1-16.1-57.9-42.1-72.9z m-11.7 85.5c2.9 0 5.4 1.6 6.8 3.8 1.4 2.5 1.4 5.5 0 8s-4 4-6.9 4h-24.1v14.6c0 4.4-3.5 8-8 8-4.4 0-8-3.5-8-8v-14.6h-24.1c-4.4 0-8-3.5-8-8 0-4.4 3.5-8 8-8H650v-16.8h-24.1c-4.4 0-8-3.5-8-8 0-4.4 3.5-8 8-8h13.8l-8.7-15.2c-2.1-3.8-0.7-8.6 3-10.7 3.7-2.2 8.6-1 10.8 2.8l13.2 22.9 13.4-22.8c2.2-3.7 7.1-4.9 10.8-2.8 3.7 2.1 5.1 6.9 3 10.7l-8.8 15.2h13.8c4.4 0 8 3.5 8 8 0 4.4-3.5 8-8 8h-24.1v16.8h24z" fill="#F4E376" p-id="7821"></path><path d="M256 318.1c0 55.6 45.1 100.6 100.6 100.6 55.6 0 100.6-45.1 100.6-100.6 0-55.5-45.1-100.6-100.6-100.6-55.5 0-100.6 45-100.6 100.6z" fill="#F4AC51" p-id="7822"></path><path d="M356.5 233.9c-46.5 0-84.2 37.7-84.2 84.2 0 30.1 16 57.9 42.1 72.9 26.1 15 58.2 15 84.2 0 26.1-15 42.1-42.9 42.1-72.9 0-46.5-37.6-84.2-84.2-84.2z m33.5 95.2c3 0 5.7 1.7 7.2 4.1 1.4 2.6 1.4 5.7 0 8.3-1.4 2.7-4.2 4.2-7.2 4.2h-24.9V361c0 4.5-3.7 8.3-8.3 8.3-4.5 0-8.3-3.6-8.3-8.3v-15.2h-25.1c-4.5 0-8.3-3.6-8.3-8.3 0-4.5 3.6-8.3 8.3-8.3h25.1v-17.5h-25.1c-4.5 0-8.3-3.6-8.3-8.3 0-4.5 3.6-8.3 8.3-8.3h14.4l-9.2-15.8c-2.2-4-0.8-8.9 3.1-11.2 3.9-2.3 8.9-1 11.3 2.9l13.7 23.9 13.7-23.9c2.3-3.9 7.4-5.1 11.3-2.9 3.9 2.2 5.3 7.2 3.1 11.2l-9.2 15.8H390c4.5 0 8.3 3.6 8.3 8.3 0 4.5-3.6 8.3-8.3 8.3h-25.1v17.5H390z" fill="#F4E376" p-id="7823"></path><path d="M365 275.7c0 79 64.1 143 143.1 143s143.1-64 143.1-143-64.1-143-143.1-143S365 196.6 365 275.7z m0 0" fill="#FFBA5A" p-id="7824"></path><path d="M508.1 155.9c-66.2 0-119.8 53.6-119.8 119.8 0 42.8 22.9 82.3 59.9 103.7 37 21.4 82.7 21.4 119.8 0 37-21.4 59.9-60.9 59.9-103.7 0-66.1-53.6-119.8-119.8-119.8z m47.6 135.6c4.2 0 8.2 2.2 10.2 5.9 2.1 3.7 2.1 8.2 0 11.8-2.1 3.8-6.1 6-10.3 6h-35.7v21.7c0 6.5-5.3 11.8-11.8 11.8-6.5 0-11.8-5.3-11.8-11.8v-21.7h-35.7c-6.5 0-11.8-5.3-11.8-11.8 0-6.5 5.3-11.8 11.8-11.8h35.7v-24.9h-35.7c-6.5 0-11.8-5.3-11.8-11.8 0-6.5 5.3-11.8 11.8-11.8H481l-13-22.6c-2.1-3.7-2.1-8.2 0-11.8 2.1-3.8 6.1-6 10.3-6 4.3 0 8.2 2.3 10.3 6l19.6 33.9 19.6-33.9c3.3-5.4 10.4-7.2 15.9-4s7.5 10.2 4.5 15.8l-13 22.5h20.4c6.5 0 11.8 5.3 11.8 11.8 0 6.5-5.3 11.8-11.8 11.8H520v24.9h35.7z" fill="#FFF48D" p-id="7825"></path><path d="M508.8 346.6c-112.8 0-213-25.1-277.1-64v493.2c0 31 25.2 56.2 56.2 56.2h441.8c31.1 0 56.2-25.2 56.2-56.2V282.5c-64 39-164.3 64.1-277.1 64.1z m0 0" fill="#FF4545" p-id="7826"></path><path d="M476.9 663.8h-70.1v-31.3h70.1v-21.8h-70.1v-31.3h56.7L379.3 445h76.3l27.6 61c13.8 30.2 17 38.1 25.8 57.4h2.2c9.1-19.2 13-28.7 25.7-57.4l26.9-61h74.8l-84.2 134.4H611v31.3h-69.4v21.8H611v31.3h-69.4v53H477v-53h-0.1z m0 0" fill="#FFFFFF" p-id="7827"></path></svg>